<svg width="19" height="19" viewBox="0 0 19 19" fill="none" xmlns="http://www.w3.org/2000/svg">
<path d="M13.63 11.4L11.11 13.9C8.61002 12.47 6.54002 10.4 5.11002 7.9L7.61002 5.38C7.84002 5.14 7.94002 4.81 7.88002 4.48L7.13002 0.8C7.04002 0.34 6.63002 0 6.15002 0H2.00002C1.44002 0 0.970019 0.47 1.00002 1.03C1.17002 3.92 2.05002 6.63 3.43002 9C5.01002 11.73 7.28002 13.99 10 15.57C12.37 16.94 15.08 17.83 17.97 18C18.53 18.03 19 17.56 19 17V12.85C19 12.37 18.66 11.96 18.2 11.87L14.53 11.14C14.2 11.07 13.86 11.17 13.63 11.4Z" fill="white"/>
</svg>
